<svg id="icon_-_password_02" data-name="icon - password 02" xmlns="http://www.w3.org/2000/svg" width="24px" height="24px" viewBox="0 0 24 24" class="zh-icon icon-size-small zh-icon-password-hide   " fill="var(--opt-blue)"><rect id="Rectangle_832" data-name="Rectangle 832" width="24" height="24" fill="rgba(255,255,255,0)"></rect><path id="Icon_ionic-md-eye-off" data-name="Icon ionic-md-eye-off" d="M10.694,7.544a3.827,3.827,0,0,1,3.84,3.809,3.664,3.664,0,0,1-.275,1.394L16.5,14.971a9.008,9.008,0,0,0,2.634-3.617,9.093,9.093,0,0,0-11.5-5.181L9.289,7.82A3.8,3.8,0,0,1,10.694,7.544ZM3.019,5.468,4.771,7.205l.354.35a8.965,8.965,0,0,0-2.875,3.8,9.106,9.106,0,0,0,11.805,5.072l.324.32,2.249,2.223L17.6,18,3.991,4.5ZM7.261,9.677l1.191,1.179a2.158,2.158,0,0,0-.06.494,2.291,2.291,0,0,0,2.3,2.283,2.165,2.165,0,0,0,.5-.06l1.191,1.179a3.82,3.82,0,0,1-5.528-3.406A3.764,3.764,0,0,1,7.261,9.677Zm3.308-.592,2.419,2.4L13,11.365a2.291,2.291,0,0,0-2.3-2.283Z" transform="translate(1.75 0.5)" fill="#c4c9d9"></path></svg>