<svg id="icon_-_password" data-name="icon - password" xmlns="http://www.w3.org/2000/svg" width="24px" height="24px" viewBox="0 0 24 24" class="zh-icon icon-size-small zh-icon-password-lock   " fill="var(--opt-blue)"><rect id="Rectangle_832" data-name="Rectangle 832" width="24" height="24" fill="none"></rect><g id="noun-password-202625" transform="translate(-18 -959.862)"><path id="Path_73" data-name="Path 73" d="M29.585,962.362a4.874,4.874,0,0,0-4.875,4.775c-.007.921,0,.859,0,1.786H22v12.439H37.171V968.923H34.463c0-.927.007-.865,0-1.786a4.874,4.874,0,0,0-4.875-4.775Zm0,1.706a3.172,3.172,0,0,1,3.171,3.172v1.683H26.415V967.24a3.172,3.172,0,0,1,3.171-3.172Zm-.829,8.3,1.707.015-.015,1.606,1.532-.483.513,1.629-1.532.483.932,1.308-1.39.991-.932-1.308-.956,1.291-1.372-1.016.956-1.291-1.522-.51.542-1.619,1.522.51.015-1.606Z" transform="translate(0 0)" fill="#fff"></path></g></svg>