<svg id="icon_-_password_01" data-name="icon - password 01" xmlns="http://www.w3.org/2000/svg" width="24px" height="24px" viewBox="0 0 24 24" class="zh-icon icon-size-small zh-icon-password-seen   " fill="var(--opt-blue)"><rect id="Rectangle_833" data-name="Rectangle 833" width="24" height="24" fill="rgba(255,255,255,0)"></rect><path id="Icon_ionic-md-eye" data-name="Icon ionic-md-eye" d="M10.69,7.383a9.076,9.076,0,0,0-8.44,5.69,9.105,9.105,0,0,0,16.881,0A9.076,9.076,0,0,0,10.69,7.383Zm0,9.484a3.795,3.795,0,1,1,3.836-3.794A3.826,3.826,0,0,1,10.69,16.867Zm0-6.07a2.276,2.276,0,1,0,2.3,2.276A2.3,2.3,0,0,0,10.69,10.8Z" transform="translate(1.75 -1.383)" fill="#c4c9d9"></path></svg>